<svg id="Lager_1" data-name="Lager 1" xmlns="http://www.w3.org/2000/svg" viewBox="0 0 405.74 83.57"><defs><style>.cls-1{fill:#9e7339;}.cls-2{fill:#573813;}.cls-3{fill:none;stroke:#184157;stroke-miterlimit:10;}.cls-4{fill:#1d1d1b;}</style></defs><path class="cls-1" d="M328.89,201.31A12.28,12.28,0,0,0,320,216.24c1.26,5,6.83,14.06,12.31,17.45-.05.14-.09.28-.13.42-6.44,0-15.93,4.74-19.63,8.28a12.28,12.28,0,0,0,17,17.75c3.47-3.31,8.19-11.63,9-18a6.57,6.57,0,0,0,1.84-.32c3.93,5,12.33,9.82,17,10.9a12.28,12.28,0,0,0,5.5-23.94c-4.7-1.08-14.34-.44-20.08,2.38a6.42,6.42,0,0,0-1-.8c2.73-5.79,3.15-15.52,1.95-20.22A12.27,12.27,0,0,0,328.89,201.31Zm15.53,34.34a6,6,0,1,1-6-6A6,6,0,0,1,344.42,235.65Z" transform="translate(-108.26 -192.28)"/><path class="cls-2" d="M336,235.65a2.42,2.42,0,1,0,2.42-2.42A2.42,2.42,0,0,0,336,235.65Z" transform="translate(-108.26 -192.28)"/><ellipse class="cls-3" cx="230.21" cy="43.37" rx="37.94" ry="39.71"/><path class="cls-4" d="M108.26,198.92h8.07v22.77a17.38,17.38,0,0,1,14.16-7.36c11.3,0,19.28,8.88,19.28,22.77,0,14.17-8.07,22.68-19.28,22.68a17.76,17.76,0,0,1-14.16-7.26v6.19h-8.07Zm20.08,53.69c8.07,0,13.09-6.45,13.09-15.51s-5-15.59-13.09-15.59a14.88,14.88,0,0,0-12,6.45v18.38C118.48,249.83,123.41,252.61,128.34,252.61Z" transform="translate(-108.26 -192.28)"/><path class="cls-4" d="M191.37,254c-3.41,3.76-8.34,5.82-14.17,5.82-7.17,0-15.06-4.84-15.06-14.34,0-9.86,7.8-14.16,15.06-14.16,5.83,0,10.85,1.88,14.17,5.73v-7.17c0-5.38-4.4-8.6-10.58-8.6-4.93,0-9.15,1.88-13,5.73l-3.5-5.55A24.35,24.35,0,0,1,182,214.33c9.41,0,17.39,4.13,17.39,15.15v29.23h-8.06Zm0-12.11c-2.43-3.22-6.64-4.93-11.12-4.93-5.83,0-9.95,3.5-9.95,8.61s4.12,8.61,9.95,8.61c4.48,0,8.69-1.71,11.12-4.93Zm-9.15-49.57a9.06,9.06,0,1,1-9,9.06A9,9,0,0,1,182.22,192.28Zm0,4.13a5,5,0,0,0-4.93,4.93,5.05,5.05,0,0,0,4.93,5,5,5,0,0,0,4.93-5A4.91,4.91,0,0,0,182.22,196.41Z" transform="translate(-108.26 -192.28)"/><path class="cls-4" d="M218.53,249.12V222.49h-7.17v-7.08h7.17V203.58h8.07v11.83h8.79v7.08H226.6v24.83c0,3.05,1.43,5.29,4.21,5.29a6.2,6.2,0,0,0,4.4-1.7l2.06,6.1c-1.71,1.61-4.22,2.77-8.43,2.77C222,259.78,218.53,255.93,218.53,249.12Z" transform="translate(-108.26 -192.28)"/><path class="cls-4" d="M278.15,230.83c0-7.17-3.68-9.32-9.24-9.32A15.45,15.45,0,0,0,257,227.78v30.93h-8.07V198.92H257v22.59a20.81,20.81,0,0,1,15.33-7.18c9.23,0,13.9,4.67,13.9,13.81v30.57h-8.07Z" transform="translate(-108.26 -192.28)"/><path class="cls-4" d="M395.3,249.11V222.49h-7.17v-7.08h7.17V203.58h8.07v11.83h8.79v7.08h-8.79v24.83c0,3.05,1.44,5.29,4.22,5.29a6.24,6.24,0,0,0,4.39-1.7L414,257c-1.7,1.62-4.21,2.78-8.43,2.78C398.8,259.78,395.3,255.93,395.3,249.11Z" transform="translate(-108.26 -192.28)"/><path class="cls-4" d="M444.7,214.33c13,0,21.07,10.13,21.07,23.4v2H431.52c.63,7.35,6,13.45,14.7,13.45A18.37,18.37,0,0,0,459,248l3.77,5.29c-4.3,4.21-10.4,6.45-17.39,6.45-12.91,0-22.41-9.14-22.41-22.77C423,224.46,432.06,214.33,444.7,214.33Zm-13.27,19.55h26.45c-.18-5.74-4-12.91-13.18-12.91C436,221,431.88,228,431.43,233.88Z" transform="translate(-108.26 -192.28)"/><path class="cls-4" d="M480.47,198.91h8.07v59.8h-8.07Z" transform="translate(-108.26 -192.28)"/><path class="cls-4" d="M505.93,198.91H514v59.8h-8.07Z" transform="translate(-108.26 -192.28)"/></svg>