<?xml version="1.0" encoding="utf-8"?>
<!-- Generator: Adobe Illustrator 24.2.3, SVG Export Plug-In . SVG Version: 6.00 Build 0)  -->
<svg version="1.1" id="Lager_1" xmlns="http://www.w3.org/2000/svg" xmlns:xlink="http://www.w3.org/1999/xlink" x="0px" y="0px"
	 viewBox="0 0 405.7 83.6" style="enable-background:new 0 0 405.7 83.6;" xml:space="preserve">
<style type="text/css">
	.st0{fill:#9E7339;}
	.st1{fill:#573813;}
	.st2{fill:none;stroke:#184157;stroke-width:4;stroke-miterlimit:10;}
	.st3{fill:#1D1D1B;}
</style>
<path class="st0" d="M220.6,9c-6.6,1.7-10.6,8.3-8.9,14.9c0,0,0,0,0,0c1.3,5,6.8,14.1,12.3,17.4c0,0.1-0.1,0.3-0.1,0.4
	c-6.4,0-15.9,4.7-19.6,8.3c-4.9,4.7-5.1,12.5-0.4,17.4c4.7,4.9,12.5,5.1,17.4,0.4l0,0c3.5-3.3,8.2-11.6,9-18c0.6,0,1.2-0.1,1.8-0.3
	c3.9,5,12.3,9.8,17,10.9c6.6,1.5,13.2-2.6,14.7-9.2c1.5-6.6-2.6-13.2-9.2-14.7c-4.7-1.1-14.3-0.4-20.1,2.4c-0.3-0.3-0.6-0.6-1-0.8
	c2.7-5.8,3.1-15.5,2-20.2C233.8,11.3,227.2,7.4,220.6,9z M236.2,43.4c0,3.3-2.7,6-6,6s-6-2.7-6-6s2.7-6,6-6S236.2,40.1,236.2,43.4z"
	/>
<path class="st1" d="M227.7,43.4c0,1.3,1.1,2.4,2.4,2.4c1.3,0,2.4-1.1,2.4-2.4c0-1.3-1.1-2.4-2.4-2.4S227.7,42,227.7,43.4
	C227.7,43.4,227.7,43.4,227.7,43.4z"/>
<ellipse class="st2" cx="230.2" cy="43.4" rx="37.9" ry="39.7"/>
<path class="st3" d="M0,6.6h8.1v22.8c3.2-4.6,8.5-7.3,14.2-7.4c11.3,0,19.3,8.9,19.3,22.8c0,14.2-8.1,22.7-19.3,22.7
	c-5.6-0.1-10.8-2.7-14.2-7.3v6.2H0V6.6z M20.1,60.3c8.1,0,13.1-6.4,13.1-15.5s-5-15.6-13.1-15.6c-4.8,0.1-9.3,2.5-12,6.4v18.4
	C10.2,57.6,15.2,60.3,20.1,60.3z"/>
<path class="st3" d="M83.1,61.7c-3.4,3.8-8.3,5.8-14.2,5.8c-7.2,0-15.1-4.8-15.1-14.3c0-9.9,7.8-14.2,15.1-14.2
	c5.8,0,10.9,1.9,14.2,5.7v-7.2c0-5.4-4.4-8.6-10.6-8.6c-4.9,0-9.1,1.9-13,5.7L56,29.2c4.7-4.7,11.1-7.3,17.7-7.1
	c9.4,0,17.4,4.1,17.4,15.1v29.2h-8.1L83.1,61.7z M83.1,49.6c-2.4-3.2-6.6-4.9-11.1-4.9c-5.8,0-9.9,3.5-9.9,8.6s4.1,8.6,9.9,8.6
	c4.5,0,8.7-1.7,11.1-4.9V49.6z M74,0c5,0,9.1,4,9.1,9c0,5-4,9.1-9,9.1c-5,0-9.1-4-9.1-9c0,0,0,0,0-0.1c-0.1-5,3.9-9,8.9-9.1
	C73.9,0,73.9,0,74,0L74,0z M74,4.2c-2.7,0-4.9,2.2-4.9,4.9c0,2.7,2.2,4.9,4.9,5c2.7,0,4.9-2.3,4.9-5C78.9,6.4,76.8,4.2,74,4.2
	C74,4.1,74,4.1,74,4.2L74,4.2z"/>
<path class="st3" d="M110.3,56.8V30.2h-7.2v-7.1h7.2V11.3h8.1v11.8h8.8v7.1h-8.8V55c0,3.1,1.4,5.3,4.2,5.3c1.6,0,3.2-0.6,4.4-1.7
	l2.1,6.1c-1.7,1.6-4.2,2.8-8.4,2.8C113.7,67.5,110.3,63.6,110.3,56.8z"/>
<path class="st3" d="M169.9,38.6c0-7.2-3.7-9.3-9.2-9.3c-4.7,0.2-9.1,2.5-11.9,6.3v30.9h-8.1V6.6h8.1v22.6c3.9-4.5,9.4-7.1,15.3-7.2
	c9.2,0,13.9,4.7,13.9,13.8v30.6h-8.1L169.9,38.6z"/>
<path class="st3" d="M287,56.8V30.2h-7.2v-7.1h7.2V11.3h8.1v11.8h8.8v7.1h-8.8V55c0,3.1,1.4,5.3,4.2,5.3c1.6,0,3.2-0.6,4.4-1.7
	l2,6.1c-1.7,1.6-4.2,2.8-8.4,2.8C290.5,67.5,287,63.6,287,56.8z"/>
<path class="st3" d="M336.4,22.1c13,0,21.1,10.1,21.1,23.4v2h-34.3c0.6,7.4,6,13.4,14.7,13.4c4.8,0,9.4-1.9,12.8-5.2l3.8,5.3
	c-4.3,4.2-10.4,6.4-17.4,6.4c-12.9,0-22.4-9.1-22.4-22.8C314.7,32.2,323.8,22.1,336.4,22.1z M323.2,41.6h26.5
	c-0.2-5.7-4-12.9-13.2-12.9C327.7,28.7,323.6,35.7,323.2,41.6L323.2,41.6z"/>
<path class="st3" d="M372.2,6.6h8.1v59.8h-8.1V6.6z"/>
<path class="st3" d="M397.7,6.6h8.1v59.8h-8.1V6.6z"/>
</svg>
